<?xml version="1.0" standalone="no"?>
<!DOCTYPE svg PUBLIC "-//W3C//DTD SVG 20010904//EN"
 "http://www.w3.org/TR/2001/REC-SVG-20010904/DTD/svg10.dtd">
<svg version="1.0" xmlns="http://www.w3.org/2000/svg"
 width="700.000000pt" height="700.000000pt" viewBox="0 0 700.000000 700.000000"
 preserveAspectRatio="xMidYMid meet">
<metadata>
Created by potrace 1.11, written by Peter Selinger 2001-2013
</metadata>
<g transform="translate(0.000000,700.000000) scale(0.100000,-0.100000)"
fill="#000000" stroke="none">
<path d="M1415 6993 c-377 -47 -689 -197 -946 -453 -257 -256 -408 -561 -457
-920 -9 -72 -9 -4203 0 -4255 4 -22 10 -51 13 -65 3 -14 8 -41 12 -60 9 -45 7
-38 22 -90 116 -417 415 -781 801 -975 69 -35 92 -46 160 -73 105 -42 228 -72
370 -90 73 -9 4160 -9 4225 0 128 18 214 38 320 75 571 198 979 701 1054 1303
11 89 9 4192 -2 4260 -18 104 -73 307 -89 324 -4 6 -8 16 -8 23 0 41 -123 261
-218 388 -55 74 -242 259 -302 300 -25 16 -47 32 -50 36 -12 13 -164 100 -226
129 -132 61 -237 93 -444 137 -35 7 -4178 13 -4235 6z"/>
</g>
</svg>
