<svg version="1.1" xmlns="http://www.w3.org/2000/svg" xmlns:xlink="http://www.w3.org/1999/xlink" viewBox="0 0 172 172">
    <g fill="none" fill-rule="nonzero" stroke="none" stroke-width="1" stroke-linecap="butt" stroke-linejoin="miter"
        stroke-miterlimit="10" stroke-dasharray="" stroke-dashoffset="0" font-family="none" font-weight="none"
        font-size="none" text-anchor="none" style="mix-blend-mode: normal">
        <path d="M0,172v-172h172v172z" fill="none"></path>
        <g fill="#000000">
            <path
                d="M141.04,64.7889c-32.17776,0.49536 -47.32408,7.85863 -51.6,10.39391v68.06094c7.34096,-2.3908 23.27504,-6.13432 51.6,-6.4164zM30.96,64.79563v72.03844c28.32496,0.27864 44.25904,4.01545 51.6,6.40969v-68.06094c-4.2484,-2.52152 -19.38784,-9.89183 -51.6,-10.38719zM19.05438,75.67328c-0.70176,0 -2.84112,0.00161 -4.31344,1.65281c-1.43104,1.60304 -1.20244,3.5704 -1.06828,4.74344c0.03784,0.31992 0.08062,0.66677 0.08062,1.02797v71.15828c0,4.1624 3.83909,7.42422 8.74109,7.42422h47.57547c2.24288,2.40456 7.55015,6.88 15.93687,6.88c8.38672,0 13.68728,-4.47544 15.93015,-6.88h47.57547c4.902,0 8.74109,-3.26182 8.74109,-7.42422v-71.15828c-0.00688,-4.1624 -3.84581,-7.42422 -8.74781,-7.42422h-1.58563v64.58062c0,1.90232 -1.54112,3.44 -3.44,3.44c-41.78912,0 -56.6711,7.49555 -56.88094,7.60563c-0.14104,0.07224 -0.28208,0.1398 -0.43,0.19484h-0.00672h-0.00672v0.00672c-0.00344,0 -0.01,0.00672 -0.01344,0.00672c-0.36464,0.12728 -0.74691,0.18812 -1.12875,0.18812h-0.02015c-0.3612,0 -0.72412,-0.05773 -1.075,-0.17469l-0.00672,-0.00672h-0.00672h-0.00672c-0.15824,-0.05848 -0.31224,-0.12572 -0.4636,-0.20828c-0.2752,-0.1376 -15.59014,-7.61235 -56.90109,-7.61235c-1.89888,0 -3.44,-1.53768 -3.44,-3.44v-64.58062z">
            </path>
        </g>
    </g>
</svg>