<svg version="1.1" xmlns="http://www.w3.org/2000/svg" xmlns:xlink="http://www.w3.org/1999/xlink" viewBox="0 0 226 226"><g fill="none" fill-rule="nonzero" stroke="none" stroke-width="1" stroke-linecap="butt" stroke-linejoin="miter" stroke-miterlimit="10" stroke-dasharray="" stroke-dashoffset="0" font-family="none" font-weight="none" font-size="none" text-anchor="none" style="mix-blend-mode: normal"><path d="M0,226v-226h226v226z" fill="none"></path><g><path d="M113,9.41667c-52.00681,0 -94.16667,42.15985 -94.16667,94.16667c0,52.00681 42.15985,94.16667 94.16667,94.16667c52.00681,0 94.16667,-42.15985 94.16667,-94.16667c0,-52.00681 -42.15985,-94.16667 -94.16667,-94.16667z" fill="#fff59d"></path><path d="M174.20833,103.58333c0,-36.25417 -31.075,-64.975 -68.27083,-60.7375c-28.25,3.29583 -50.85,25.89583 -53.675,54.14583c-2.35417,21.65833 6.59167,40.9625 21.65833,53.20417c6.59167,5.65 10.82917,13.65417 10.82917,22.6v1.4125h56.5v-0.47083c0,-8.475 3.76667,-16.95 10.35833,-22.6c13.65417,-11.3 22.6,-28.25 22.6,-47.55417z" fill="#fbc02d"></path><path d="M144.075,95.10833l-14.125,-9.41667c-1.4125,-0.94167 -3.76667,-0.94167 -5.17917,0l-11.77083,7.53333l-11.3,-7.53333c-1.4125,-0.94167 -3.76667,-0.94167 -5.17917,0l-14.125,9.41667c-0.94167,0.94167 -1.88333,1.88333 -1.88333,3.29583c0,1.4125 0,2.825 0.94167,3.76667l17.89167,22.12917v49.90833h9.41667v-51.79167c0,-0.94167 -0.47083,-1.88333 -0.94167,-2.825l-15.5375,-19.30417l7.0625,-4.70833l11.3,7.53333c1.4125,0.94167 3.76667,0.94167 5.17917,0l11.3,-7.53333l7.0625,4.70833l-15.5375,19.30417c-0.47083,0.94167 -0.94167,1.88333 -0.94167,2.825v51.79167h9.41667v-49.90833l17.89167,-22.12917c0.94167,-0.94167 1.4125,-2.35417 0.94167,-3.76667c-0.47083,-1.4125 -0.94167,-2.825 -1.88333,-3.29583z" fill="#fff59d"></path><path d="M113,193.04167c-7.80102,0 -14.125,6.32398 -14.125,14.125c0,7.80102 6.32398,14.125 14.125,14.125c7.80102,0 14.125,-6.32398 14.125,-14.125c0,-7.80102 -6.32398,-14.125 -14.125,-14.125z" fill="#5c6bc0"></path><path d="M122.41667,211.875h-18.83333c-10.35833,0 -18.83333,-8.475 -18.83333,-18.83333v-23.54167h56.5v23.54167c0,10.35833 -8.475,18.83333 -18.83333,18.83333z" fill="#9fa8da"></path><path d="M141.25,193.04167l-54.61667,7.53333c1.4125,3.29583 4.2375,6.59167 7.53333,8.475l44.25833,-6.12083c1.88333,-2.825 2.825,-6.12083 2.825,-9.8875zM84.75,182.2125v9.41667l56.5,-8.00417v-9.41667z" fill="#5c6bc0"></path></g></g></svg>