<svg version="1.0" xmlns="http://www.w3.org/2000/svg"
 width="252.000000pt" height="435.000000pt" viewBox="0 0 252.000000 435.000000">
<g transform="translate(0.000000,435.000000) scale(0.100000,-0.100000)"
fill="currentColor" stroke="none">
<path d="M1035 4335 c-104 -18 -277 -80 -377 -132 -237 -125 -434 -331 -547
-574 -89 -190 -111 -294 -111 -521 0 -186 18 -304 66 -440 41 -115 114 -255
143 -275 24 -17 85 -18 1042 -18 870 0 1020 2 1043 15 50 26 147 234 185 394
76 318 45 598 -97 881 -172 344 -512 595 -908 671 -93 17 -341 17 -439 -1z"/>
</g>
</svg>
