<svg version="1.1" xmlns="http://www.w3.org/2000/svg" xmlns:xlink="http://www.w3.org/1999/xlink" viewBox="0 0 226 226"><g fill="none" fill-rule="nonzero" stroke="none" stroke-width="1" stroke-linecap="butt" stroke-linejoin="miter" stroke-miterlimit="10" stroke-dasharray="" stroke-dashoffset="0" font-family="none" font-weight="none" font-size="none" text-anchor="none" style="mix-blend-mode: normal"><path d="M0,226v-226h226v226z" fill="none"></path><g><path d="M113,18.83333c-52.00681,0 -94.16667,42.15985 -94.16667,94.16667c0,52.00681 42.15985,94.16667 94.16667,94.16667c52.00681,0 94.16667,-42.15985 94.16667,-94.16667c0,-52.00681 -42.15985,-94.16667 -94.16667,-94.16667z" fill="#ffe082"></path><path d="M113,18.83333c-30.80662,0 -58.07729,14.86421 -75.258,37.742c15.73525,-11.81792 35.22775,-18.90867 56.42467,-18.90867c52.00354,0 94.16667,42.16312 94.16667,94.16667c0,21.19692 -7.09075,40.68942 -18.90867,56.42467c22.87779,-17.18071 37.742,-44.45138 37.742,-75.258c0,-52.00354 -42.16312,-94.16667 -94.16667,-94.16667z" fill="#ffd54f"></path><path d="M63.5625,113c-6.50085,0 -11.77083,5.26998 -11.77083,11.77083c0,6.50085 5.26998,11.77083 11.77083,11.77083c6.50085,0 11.77083,-5.26998 11.77083,-11.77083c0,-6.50085 -5.26998,-11.77083 -11.77083,-11.77083zM171.85417,136.54167c-6.50085,0 -11.77083,5.26998 -11.77083,11.77083c0,6.50085 5.26998,11.77083 11.77083,11.77083c6.50085,0 11.77083,-5.26998 11.77083,-11.77083c0,-6.50085 -5.26998,-11.77083 -11.77083,-11.77083zM98.875,51.79167c-10.40136,0 -18.83333,8.43197 -18.83333,18.83333c0,10.40136 8.43197,18.83333 18.83333,18.83333c10.40136,0 18.83333,-8.43197 18.83333,-18.83333c0,-10.40136 -8.43197,-18.83333 -18.83333,-18.83333zM105.9375,136.54167c-9.10119,0 -16.47917,7.37797 -16.47917,16.47917c0,9.10119 7.37797,16.47917 16.47917,16.47917c9.10119,0 16.47917,-7.37797 16.47917,-16.47917c0,-9.10119 -7.37797,-16.47917 -16.47917,-16.47917z" fill="#ffca28"></path><g fill="#e5b223"><path d="M105.9375,87.10417c-9.10121,0 -16.47917,-7.37796 -16.47917,-16.47917c0,-9.10121 7.37796,-16.47917 16.47917,-16.47917c0.791,0 1.54433,0.12242 2.30708,0.23071c-2.77321,-1.60083 -5.93721,-2.58487 -9.36958,-2.58487c-10.40071,0 -18.83333,8.43263 -18.83333,18.83333c0,10.40071 8.43263,18.83333 18.83333,18.83333c3.43237,0 6.59637,-0.98404 9.36958,-2.58487c-0.76275,0.10829 -1.51608,0.23071 -2.30708,0.23071zM169.5,148.3125c0,-4.82133 2.90975,-8.95996 7.0625,-10.77738c-1.44546,-0.63092 -3.03217,-0.99346 -4.70833,-0.99346c-6.50221,0 -11.77083,5.26862 -11.77083,11.77083c0,6.50221 5.26863,11.77083 11.77083,11.77083c1.67617,0 3.26287,-0.36254 4.70833,-0.99346c-4.15275,-1.82212 -7.0625,-5.95604 -7.0625,-10.77738zM61.20833,124.77083c0,-4.82133 2.90975,-8.95996 7.0625,-10.77738c-1.44546,-0.63092 -3.03217,-0.99346 -4.70833,-0.99346c-6.50221,0 -11.77083,5.26862 -11.77083,11.77083c0,6.50221 5.26863,11.77083 11.77083,11.77083c1.67617,0 3.26288,-0.36254 4.70833,-0.99346c-4.15275,-1.82212 -7.0625,-5.95604 -7.0625,-10.77737zM98.875,153.02083c0,-7.45329 4.98142,-13.673 11.77083,-15.71642c-1.49725,-0.452 -3.06042,-0.76275 -4.70833,-0.76275c-9.10121,0 -16.47917,7.37796 -16.47917,16.47917c0,9.10121 7.37796,16.47917 16.47917,16.47917c1.64792,0 3.21108,-0.31075 4.70833,-0.76275c-6.78942,-2.04342 -11.77083,-8.26313 -11.77083,-15.71642z"></path></g></g></g></svg>