<svg version="1.1" xmlns="http://www.w3.org/2000/svg" xmlns:xlink="http://www.w3.org/1999/xlink" viewBox="0 0 172 172"><g fill="none" fill-rule="nonzero" stroke="none" stroke-width="1" stroke-linecap="butt" stroke-linejoin="miter" stroke-miterlimit="10" stroke-dasharray="" stroke-dashoffset="0" font-family="none" font-weight="none" font-size="none" text-anchor="none" style="mix-blend-mode: normal"><path d="M0,172v-172h172v172z" fill="none"></path><g><path d="M155.51667,29.74167l-141.18333,24.00833l-1.075,-7.16667c-1.43333,-7.88333 3.94167,-15.05 11.825,-16.48333l113.23333,-18.99167c7.88333,-1.43333 15.05,3.94167 16.48333,11.825zM143.33333,146.91667h-114.66667c-7.88333,0 -14.33333,-6.45 -14.33333,-14.33333v-78.83333h143.33333v78.83333c0,7.88333 -6.45,14.33333 -14.33333,14.33333z" fill="#3f51b5"></path><path d="M67.36667,22.93333l17.55833,18.99167l14.33333,-2.50833l-17.91667,-18.99167zM39.05833,27.59167l17.55833,18.99167l14.33333,-2.50833l-17.91667,-18.63333zM95.675,18.275l17.55833,18.63333l13.975,-2.15l-17.55833,-18.99167zM123.625,13.61667l17.91667,18.63333l13.975,-2.50833l-17.55833,-18.63333zM26.875,35.83333c-2.96853,0 -5.375,2.40647 -5.375,5.375c0,2.96853 2.40647,5.375 5.375,5.375c2.96853,0 5.375,-2.40647 5.375,-5.375c0,-2.96853 -2.40647,-5.375 -5.375,-5.375z" fill="#9fa8da"></path><g fill="#9fa8da"><path d="M143.33333,53.75l-14.33333,21.5h14.33333l14.33333,-21.5zM114.66667,53.75l-14.33333,21.5h14.33333l14.33333,-21.5zM86,53.75l-14.33333,21.5h14.33333l14.33333,-21.5zM57.33333,53.75l-14.33333,21.5h14.33333l14.33333,-21.5zM28.66667,53.75l-14.33333,21.5h14.33333l14.33333,-21.5z"></path></g></g></g></svg>