<svg xmlns="http://www.w3.org/2000/svg" viewBox="9 15 46 39">
    <path fill="currentColor"
        d="M 14 15 C 11.243 15 9 17.243 9 20 L 9 42 C 9 44.757 11.243 47 14 47 L 26 47 L 26 50 L 25 50 C 23.896 50 23 50.896 23 52 C 23 53.104 23.896 54 25 54 L 39 54 C 40.104 54 41 53.104 41 52 C 41 50.896 40.104 50 39 50 L 38 50 L 38 47 L 50 47 C 52.757 47 55 44.757 55 42 L 55 20 C 55 17.243 52.757 15 50 15 L 14 15 z M 14 19 L 50 19 C 50.552 19 51 19.449 51 20 L 51 42 C 51 42.551 50.552 43 50 43 L 14 43 C 13.448 43 13 42.551 13 42 L 13 20 C 13 19.449 13.448 19 14 19 z M 29.085938 22.503906 C 28.488937 22.466906 27.980266 22.761859 27.697266 23.255859 L 24.130859 29.5 L 18 29.5 C 17.172 29.5 16.5 30.171 16.5 31 C 16.5 31.829 17.172 32.5 18 32.5 L 25 32.5 C 25.538 32.5 26.034734 32.210141 26.302734 31.744141 L 28.808594 27.359375 L 33.621094 38.591797 C 33.846094 39.114797 34.347062 39.465047 34.914062 39.498047 C 34.943062 39.499047 34.972 39.5 35 39.5 C 35.536 39.5 36.033734 39.213141 36.302734 38.744141 L 39.869141 32.5 L 46 32.5 C 46.828 32.5 47.5 31.829 47.5 31 C 47.5 30.171 46.828 29.5 46 29.5 L 39 29.5 C 38.462 29.5 37.965266 29.788859 37.697266 30.255859 L 35.191406 34.640625 L 30.378906 23.410156 C 30.153906 22.887156 29.652938 22.536906 29.085938 22.503906 z">
    </path>
</svg>