<svg xmlns="http://www.w3.org/2000/svg" width="93.729" height="98.136" viewBox="0 0 93.729 98.136">
  <path data-name="Home"
    d="M34.337 87.722V74.207a6.285 6.285 0 0 1 6.274-6.254H53.33a6.285 6.285 0 0 1 6.317 6.254h0v13.557a5.4 5.4 0 0 0 5.3 5.372h8.479a15.228 15.228 0 0 0 15.3-15.151h0V39.54a10.75 10.75 0 0 0-4.239-8.394l-29-23.126a14.015 14.015 0 0 0-17.382 0L9.239 31.188A10.667 10.667 0 0 0 5 39.582v38.4a15.228 15.228 0 0 0 15.3 15.154h8.479a5.442 5.442 0 0 0 5.469-5.414h0"
    fill="none" stroke="currentColor" stroke-linecap="round" stroke-linejoin="round" stroke-miterlimit="10"
    stroke-width="10" />
</svg>