<svg xmlns="http://www.w3.org/2000/svg" width="68.538" height="68.538" viewBox="0 0 68.538 68.538">
  <g data-name="Icon feather-settings" fill="none" stroke="currentColor" stroke-linecap="round" stroke-linejoin="round" stroke-width="5">
    <path data-name="Path 46" d="M42.933 34.269a8.664 8.664 0 1 1-8.664-8.664 8.664 8.664 0 0 1 8.664 8.664Z"/>
    <path data-name="Path 47" d="M55.641 42.933a4.765 4.765 0 0 0 .953 5.256l.173.173a5.78 5.78 0 1 1-8.173 8.173l-.173-.173a4.8 4.8 0 0 0-8.144 3.408v.491a5.776 5.776 0 1 1-11.552 0V60a4.765 4.765 0 0 0-3.125-4.359 4.765 4.765 0 0 0-5.256.953l-.173.173A5.779 5.779 0 1 1 12 48.594l.173-.173a4.8 4.8 0 0 0-3.408-8.144h-.489a5.776 5.776 0 1 1 0-11.552h.26A4.765 4.765 0 0 0 12.9 25.6a4.765 4.765 0 0 0-.953-5.256l-.173-.173A5.779 5.779 0 1 1 19.944 12l.173.173a4.765 4.765 0 0 0 5.256.953h.227a4.765 4.765 0 0 0 2.888-4.361v-.489a5.776 5.776 0 0 1 11.552 0v.26a4.8 4.8 0 0 0 8.144 3.408l.173-.173a5.78 5.78 0 1 1 8.173 8.173l-.173.173a4.765 4.765 0 0 0-.953 5.256v.227a4.765 4.765 0 0 0 4.361 2.888h.491a5.776 5.776 0 1 1 0 11.552H60a4.765 4.765 0 0 0-4.361 2.888Z"/>
  </g>
</svg>
