<svg xmlns="http://www.w3.org/2000/svg" viewBox="10 15 44 40">
    <path fill="currentColor"
        d="M 14 15 C 11.794 15 10 16.794 10 19 L 10 41 C 10 43.206 11.794 45 14 45 L 50 45 C 52.206 45 54 43.206 54 41 L 54 19 C 54 16.794 52.206 15 50 15 L 14 15 z M 29.085938 22.003906 C 29.652938 22.036906 30.153906 22.387156 30.378906 22.910156 L 35.191406 34.140625 L 37.697266 29.755859 C 37.965266 29.288859 38.462 29 39 29 L 46 29 C 46.828 29 47.5 29.671 47.5 30.5 C 47.5 31.329 46.828 32 46 32 L 39.869141 32 L 36.302734 38.244141 C 36.033734 38.713141 35.536 39 35 39 C 34.972 39 34.943062 38.998094 34.914062 38.996094 C 34.347063 38.963094 33.846094 38.612844 33.621094 38.089844 L 28.808594 26.859375 L 26.302734 31.244141 C 26.034734 31.711141 25.538 32 25 32 L 18 32 C 17.172 32 16.5 31.329 16.5 30.5 C 16.5 29.671 17.172 29 18 29 L 24.130859 29 L 27.697266 22.755859 C 27.980266 22.261859 28.494937 21.970906 29.085938 22.003906 z M 26 48 L 26 51 L 25 51 C 23.896 51 23 51.896 23 53 C 23 54.104 23.896 55 25 55 L 39 55 C 40.104 55 41 54.104 41 53 C 41 51.896 40.104 51 39 51 L 38 51 L 38 48 L 26 48 z">
    </path>
</svg>