<svg fill="#000000" xmlns="http://www.w3.org/2000/svg"  viewBox="0 0 50 50" width="50px" height="50px"><path fill="none" stroke="#000000" stroke-linecap="round" stroke-miterlimit="10" stroke-width="2" d="M29.9,32.5c-0.1-1.1-0.1-1.9-0.1-2.8c0-0.8,0.3-1.5,0.7-2.1c0.7-1,1.4-2.7,1.6-4.2c0.6,0,1.5-0.6,1.7-2.8c0.1-1.2-0.4-1.9-0.8-2.1C34,15.7,35.9,7,29.5,6.1c-0.7-1.2-2.4-1.8-4.6-1.8c-8.9,0.2-9.9,6.7-8,14.2c-0.3,0.2-0.9,0.9-0.8,2.1c0.3,2.2,1.2,2.8,1.7,2.8c0.2,1.5,0.9,3.1,1.6,4.1c0.5,0.7,0.7,1.6,0.7,2.5c0,0.8,0,1.6-0.1,2.5C18.4,37.2,6.5,35.9,6,45h38C43.5,35.9,31.7,37.2,29.9,32.5z"/><path fill="none" stroke="#000000" stroke-linecap="round" stroke-miterlimit="10" stroke-width="2" d="M30.6 27.5c0 0-2.6 3.5-5.6 3.5s-5.7-3.6-5.7-3.6M30.6 34.5c0 0-1.2 3.5-5.6 3.5s-5.7-3.6-5.7-3.6"/></svg>