<?xml version="1.0" standalone="no"?>
<!DOCTYPE svg PUBLIC "-//W3C//DTD SVG 20010904//EN"
 "http://www.w3.org/TR/2001/REC-SVG-20010904/DTD/svg10.dtd">
<svg version="1.0" xmlns="http://www.w3.org/2000/svg"
 width="370.000000pt" height="259.000000pt" viewBox="0 0 370.000000 259.000000"
 preserveAspectRatio="xMidYMid meet">

<defs xmlns="http://www.w3.org/2000/svg">
  <linearGradient id="Gradient2" gradientTransform="rotate(45)">
    <stop offset="0%" stop-color="rgb(18, 194, 233)"/>
    <stop offset="50%" stop-color="rgb(196, 113, 237)"/>
    <stop offset="100%" stop-color="rgb(246, 79, 89)"/>
  </linearGradient>
</defs>

<rect x="0" y="0" rx="0" ry="0" width="370" height="259" fill="white"/>
<g transform="translate(0.000000,259.000000) scale(0.100000,-0.100000)"
fill="#000000" stroke="none">
<path d="M1810 2473 c-19 -10 -98 -66 -176 -123 -77 -58 -212 -158 -300 -222
-87 -65 -232 -172 -322 -238 -102 -75 -166 -129 -172 -146 -6 -14 -10 -58 -10
-98 l0 -73 -92 -38 c-349 -143 -590 -310 -668 -465 -143 -283 122 -500 682
-560 141 -15 568 -12 748 5 359 33 707 97 1020 186 74 21 138 39 143 39 4 0 7
-108 7 -240 l0 -240 -880 0 c-660 0 -886 -3 -905 -12 -59 -27 -72 -109 -26
-160 l29 -33 961 -3 960 -2 33 29 33 29 5 357 5 356 82 33 c274 113 494 259
589 392 54 76 74 130 74 203 0 151 -127 273 -360 346 -167 52 -478 91 -537 66
-63 -26 -63 -27 -63 -483 l1 -413 -158 -48 c-269 -80 -596 -146 -898 -181
-139 -16 -423 -36 -517 -36 l-58 0 0 478 0 477 211 155 c499 367 600 440 605
440 3 0 54 -36 112 -79 343 -254 324 -241 367 -241 79 1 126 73 93 145 -7 15
-92 84 -205 168 -363 266 -354 260 -413 230z m1226 -838 c164 -28 298 -78 357
-133 31 -30 36 -76 12 -121 -36 -70 -212 -193 -404 -283 -56 -26 -107 -48
-112 -48 -5 0 -9 130 -9 300 l0 300 34 0 c18 0 73 -7 122 -15z m-2206 -610 l0
-315 -37 5 c-21 2 -76 9 -123 15 -268 35 -430 112 -430 205 0 68 122 183 295
277 109 59 256 126 278 127 16 1 17 -20 17 -314z"/>
<path d="M1722 1717 c-24 -12 -59 -38 -79 -57 -34 -33 -83 -120 -83 -147 0
-10 31 -13 120 -13 l120 0 0 120 c0 136 -1 137 -78 97z"/>
<path d="M1910 1620 l0 -120 121 0 c120 0 120 0 113 23 -26 87 -81 155 -156
193 -79 40 -78 41 -78 -96z"/>
<path d="M1560 1388 c1 -27 40 -98 77 -138 35 -39 120 -90 151 -90 9 0 12 31
12 120 l0 120 -120 0 c-89 0 -120 -3 -120 -12z"/>
<path d="M1910 1280 c0 -133 -1 -131 66 -101 80 36 140 108 168 199 7 22 7 22
-113 22 l-121 0 0 -120z"/>
</g>
</svg>
